<mxfile host="65bd71144e">
    <diagram id="8xAQPot9JXs6AjnARV_5" name="Page-1">
        <mxGraphModel dx="2091" dy="789" grid="1" gridSize="10" guides="1" tooltips="1" connect="1" arrows="1" fold="1" page="1" pageScale="1" pageWidth="850" pageHeight="1100" math="0" shadow="0">
            <root>
                <mxCell id="0"/>
                <mxCell id="1" parent="0"/>
                <mxCell id="2" value="ns:ComplexTemporalExtent" style="rounded=0;whiteSpace=wrap;html=1;snapToPoint=1;points=[[0.1,0],[0.2,0],[0.3,0],[0.4,0],[0.5,0],[0.6,0],[0.7,0],[0.8,0],[0.9,0],[0,0.1],[0,0.3],[0,0.5],[0,0.7],[0,0.9],[0.1,1],[0.2,1],[0.3,1],[0.4,1],[0.5,1],[0.6,1],[0.7,1],[0.8,1],[0.9,1],[1,0.1],[1,0.3],[1,0.5],[1,0.7],[1,0.9]];" vertex="1" parent="1">
                    <mxGeometry x="-675" y="270" width="190" height="30" as="geometry"/>
                </mxCell>
                <mxCell id="3" value="ns:TemporalExtent" style="rounded=0;whiteSpace=wrap;html=1;snapToPoint=1;points=[[0.1,0],[0.2,0],[0.3,0],[0.4,0],[0.5,0],[0.6,0],[0.7,0],[0.8,0],[0.9,0],[0,0.1],[0,0.3],[0,0.5],[0,0.7],[0,0.9],[0.1,1],[0.2,1],[0.3,1],[0.4,1],[0.5,1],[0.6,1],[0.7,1],[0.8,1],[0.9,1],[1,0.1],[1,0.3],[1,0.5],[1,0.7],[1,0.9]];" vertex="1" parent="1">
                    <mxGeometry x="-640" y="90" width="120" height="30" as="geometry"/>
                </mxCell>
                <mxCell id="4" value="" style="endArrow=classic;html=1;exitX=0.5;exitY=1;exitDx=0;exitDy=0;entryX=0.5;entryY=0;entryDx=0;entryDy=0;endSize=8;arcSize=0;" edge="1" source="3" target="2" parent="1">
                    <mxGeometry width="50" height="50" relative="1" as="geometry">
                        <mxPoint x="-660" y="208.32999999999998" as="sourcePoint"/>
                        <mxPoint x="-447.9999999999998" y="208.32999999999998" as="targetPoint"/>
                    </mxGeometry>
                </mxCell>
                <mxCell id="5" value="&lt;div&gt;ns:contains.ComplexTemporalExtent (1..N)&lt;/div&gt;" style="text;html=1;align=center;verticalAlign=middle;resizable=0;points=[];labelBackgroundColor=#ffffff;" vertex="1" connectable="0" parent="4">
                    <mxGeometry x="-0.1269" relative="1" as="geometry">
                        <mxPoint as="offset"/>
                    </mxGeometry>
                </mxCell>
                <mxCell id="7" value="" style="endArrow=block;html=1;fontColor=#000099;exitX=0.5;exitY=1;exitDx=0;exitDy=0;endFill=0;entryX=1;entryY=0.1;entryDx=0;entryDy=0;endSize=8;arcSize=0;" edge="1" source="9" target="2" parent="1">
                    <mxGeometry width="50" height="50" relative="1" as="geometry">
                        <mxPoint x="-565" y="180" as="sourcePoint"/>
                        <mxPoint x="-407.0000000000107" y="180" as="targetPoint"/>
                    </mxGeometry>
                </mxCell>
                <mxCell id="8" value="ns:PointInTime" style="rounded=0;whiteSpace=wrap;html=1;snapToPoint=1;points=[[0.1,0],[0.2,0],[0.3,0],[0.4,0],[0.5,0],[0.6,0],[0.7,0],[0.8,0],[0.9,0],[0,0.1],[0,0.3],[0,0.5],[0,0.7],[0,0.9],[0.1,1],[0.2,1],[0.3,1],[0.4,1],[0.5,1],[0.6,1],[0.7,1],[0.8,1],[0.9,1],[1,0.1],[1,0.3],[1,0.5],[1,0.7],[1,0.9]];" vertex="1" parent="1">
                    <mxGeometry x="-370" y="360" width="100" height="30" as="geometry"/>
                </mxCell>
                <mxCell id="9" value="ns:TimeInterval" style="rounded=0;whiteSpace=wrap;html=1;snapToPoint=1;points=[[0.1,0],[0.2,0],[0.3,0],[0.4,0],[0.5,0],[0.6,0],[0.7,0],[0.8,0],[0.9,0],[0,0.1],[0,0.3],[0,0.5],[0,0.7],[0,0.9],[0.1,1],[0.2,1],[0.3,1],[0.4,1],[0.5,1],[0.6,1],[0.7,1],[0.8,1],[0.9,1],[1,0.1],[1,0.3],[1,0.5],[1,0.7],[1,0.9]];" vertex="1" parent="1">
                    <mxGeometry x="-370" y="180" width="100" height="30" as="geometry"/>
                </mxCell>
                <mxCell id="10" value="" style="endArrow=block;html=1;fontColor=#000099;exitX=0.5;exitY=0;exitDx=0;exitDy=0;endFill=0;entryX=1;entryY=0.9;entryDx=0;entryDy=0;endSize=8;arcSize=0;" edge="1" parent="1" source="8" target="2">
                    <mxGeometry width="50" height="50" relative="1" as="geometry">
                        <mxPoint x="-310" y="220" as="sourcePoint"/>
                        <mxPoint x="-475" y="283" as="targetPoint"/>
                    </mxGeometry>
                </mxCell>
                <mxCell id="14" value="" style="endArrow=classic;html=1;exitX=0.5;exitY=1;exitDx=0;exitDy=0;entryX=0.5;entryY=0;entryDx=0;entryDy=0;endSize=8;arcSize=0;edgeStyle=orthogonalEdgeStyle;curved=1;" edge="1" source="9" target="8" parent="1">
                    <mxGeometry width="50" height="50" relative="1" as="geometry">
                        <mxPoint x="-316.43" y="210" as="sourcePoint"/>
                        <mxPoint x="-316.43" y="360" as="targetPoint"/>
                        <Array as="points">
                            <mxPoint x="-240" y="210"/>
                            <mxPoint x="-240" y="360"/>
                        </Array>
                    </mxGeometry>
                </mxCell>
                <mxCell id="15" value="&lt;div&gt;ns:endsAt.PointInTIme(1..1)&lt;/div&gt;" style="text;html=1;align=center;verticalAlign=middle;resizable=0;points=[];labelBackgroundColor=#ffffff;" vertex="1" connectable="0" parent="14">
                    <mxGeometry x="-0.1269" relative="1" as="geometry">
                        <mxPoint x="4" y="29" as="offset"/>
                    </mxGeometry>
                </mxCell>
                <mxCell id="18" value="" style="endArrow=classic;html=1;exitX=0.5;exitY=1;exitDx=0;exitDy=0;endSize=8;arcSize=0;edgeStyle=orthogonalEdgeStyle;curved=1;" edge="1" parent="1" source="9">
                    <mxGeometry width="50" height="50" relative="1" as="geometry">
                        <mxPoint x="-510" y="535" as="sourcePoint"/>
                        <mxPoint x="-320" y="360" as="targetPoint"/>
                        <Array as="points">
                            <mxPoint x="-320" y="280"/>
                            <mxPoint x="-320" y="280"/>
                        </Array>
                    </mxGeometry>
                </mxCell>
                <mxCell id="19" value="&lt;div&gt;ns:startsFrom.PointInTime(1..1)&lt;/div&gt;" style="text;html=1;align=center;verticalAlign=middle;resizable=0;points=[];labelBackgroundColor=#ffffff;" vertex="1" connectable="0" parent="18">
                    <mxGeometry x="-0.1269" relative="1" as="geometry">
                        <mxPoint x="4.17" as="offset"/>
                    </mxGeometry>
                </mxCell>
                <mxCell id="20" value="ns:ReferenceSystem" style="rounded=0;whiteSpace=wrap;html=1;snapToPoint=1;points=[[0.1,0],[0.2,0],[0.3,0],[0.4,0],[0.5,0],[0.6,0],[0.7,0],[0.8,0],[0.9,0],[0,0.1],[0,0.3],[0,0.5],[0,0.7],[0,0.9],[0.1,1],[0.2,1],[0.3,1],[0.4,1],[0.5,1],[0.6,1],[0.7,1],[0.8,1],[0.9,1],[1,0.1],[1,0.3],[1,0.5],[1,0.7],[1,0.9]];" vertex="1" parent="1">
                    <mxGeometry x="-270" y="480" width="100" height="30" as="geometry"/>
                </mxCell>
                <mxCell id="21" value="ns:Value" style="rounded=0;whiteSpace=wrap;html=1;snapToPoint=1;points=[[0.1,0],[0.2,0],[0.3,0],[0.4,0],[0.5,0],[0.6,0],[0.7,0],[0.8,0],[0.9,0],[0,0.1],[0,0.3],[0,0.5],[0,0.7],[0,0.9],[0.1,1],[0.2,1],[0.3,1],[0.4,1],[0.5,1],[0.6,1],[0.7,1],[0.8,1],[0.9,1],[1,0.1],[1,0.3],[1,0.5],[1,0.7],[1,0.9]];" vertex="1" parent="1">
                    <mxGeometry x="-480" y="480" width="100" height="30" as="geometry"/>
                </mxCell>
                <mxCell id="22" value="" style="endArrow=classic;html=1;exitX=0.5;exitY=0;exitDx=0;exitDy=0;entryX=0.5;entryY=1;entryDx=0;entryDy=0;endSize=8;arcSize=0;" edge="1" source="21" target="8" parent="1">
                    <mxGeometry width="50" height="50" relative="1" as="geometry">
                        <mxPoint x="-540" y="568.3299999999999" as="sourcePoint"/>
                        <mxPoint x="-327.9999999999998" y="568.3299999999999" as="targetPoint"/>
                    </mxGeometry>
                </mxCell>
                <mxCell id="23" value="&lt;div&gt;ns:hasValue&lt;/div&gt;" style="text;html=1;align=center;verticalAlign=middle;resizable=0;points=[];labelBackgroundColor=#ffffff;" vertex="1" connectable="0" parent="22">
                    <mxGeometry x="-0.1269" relative="1" as="geometry">
                        <mxPoint x="4.17" as="offset"/>
                    </mxGeometry>
                </mxCell>
                <mxCell id="24" value="" style="endArrow=classic;html=1;exitX=0.5;exitY=1;exitDx=0;exitDy=0;entryX=0.5;entryY=0;entryDx=0;entryDy=0;endSize=8;arcSize=0;" edge="1" parent="1" source="8" target="20">
                    <mxGeometry width="50" height="50" relative="1" as="geometry">
                        <mxPoint x="-410" y="475" as="sourcePoint"/>
                        <mxPoint x="-236" y="475" as="targetPoint"/>
                    </mxGeometry>
                </mxCell>
                <mxCell id="25" value="&lt;div&gt;ns:hasReferenceSystem&lt;/div&gt;" style="text;html=1;align=center;verticalAlign=middle;resizable=0;points=[];labelBackgroundColor=#ffffff;" vertex="1" connectable="0" parent="24">
                    <mxGeometry x="-0.1269" relative="1" as="geometry">
                        <mxPoint x="4.17" as="offset"/>
                    </mxGeometry>
                </mxCell>
            </root>
        </mxGraphModel>
    </diagram>
</mxfile>